CSLSans-Regular.ufo
<glyph name="ampersand" format="2">
  <advance width="694"/>
  <unicode hex="0026"/>
  <outline>
    <contour>
      <point x="293" y="58" type="qcurve" smooth="yes"/>
      <point x="388" y="58"/>
      <point x="444" y="130" type="qcurve"/>
      <point x="257" y="332" type="line"/>
      <point x="216" y="312"/>
      <point x="155" y="251"/>
      <point x="155" y="192" type="qcurve" smooth="yes"/>
      <point x="155" y="177" type="line" smooth="yes"/>
      <point x="155" y="122"/>
      <point x="230" y="58"/>
    </contour>
    <contour>
      <point x="282" y="412" type="qcurve"/>
      <point x="367" y="455"/>
      <point x="397" y="507" type="qcurve" smooth="yes"/>
      <point x="408" y="525"/>
      <point x="408" y="546" type="qcurve" smooth="yes"/>
      <point x="408" y="558" type="line" smooth="yes"/>
      <point x="408" y="599"/>
      <point x="351" y="643"/>
      <point x="313" y="643" type="qcurve" smooth="yes"/>
      <point x="270" y="643"/>
      <point x="215" y="589"/>
      <point x="215" y="549" type="qcurve" smooth="yes"/>
      <point x="215" y="537" type="line" smooth="yes"/>
      <point x="215" y="507"/>
      <point x="252" y="446"/>
    </contour>
    <contour>
      <point x="286" y="-12" type="qcurve" smooth="yes"/>
      <point x="183" y="-12"/>
      <point x="72" y="102"/>
      <point x="72" y="181" type="qcurve" smooth="yes"/>
      <point x="72" y="253"/>
      <point x="117" y="304" type="qcurve"/>
      <point x="159" y="349"/>
      <point x="215" y="378" type="qcurve"/>
      <point x="179" y="416"/>
      <point x="136" y="495"/>
      <point x="136" y="542" type="qcurve" smooth="yes"/>
      <point x="136" y="613"/>
      <point x="235" y="710"/>
      <point x="317" y="710" type="qcurve" smooth="yes"/>
      <point x="391" y="710"/>
      <point x="485" y="626"/>
      <point x="485" y="560" type="qcurve" smooth="yes"/>
      <point x="485" y="496"/>
      <point x="438" y="447" type="qcurve" smooth="yes"/>
      <point x="393" y="402"/>
      <point x="325" y="367" type="qcurve"/>
      <point x="482" y="198" type="line"/>
      <point x="511" y="276"/>
      <point x="515" y="367" type="qcurve"/>
      <point x="651" y="367" type="line"/>
      <point x="651" y="299" type="line"/>
      <point x="580" y="299" type="line"/>
      <point x="567" y="211"/>
      <point x="532" y="145" type="qcurve"/>
      <point x="668" y="0" type="line"/>
      <point x="564" y="0" type="line"/>
      <point x="489" y="82" type="line"/>
      <point x="467" y="54"/>
      <point x="420" y="22" type="qcurve"/>
      <point x="362" y="-12"/>
    </contour>
  </outline>
</glyph>
<glyph name="comma" format="2">
  <advance width="300"/>
  <unicode hex="002C"/>
  <outline>
    <contour>
      <point x="53" y="-133" type="line"/>
      <point x="112" y="-74"/>
      <point x="128" y="-9" type="qcurve"/>
      <point x="89" y="4"/>
      <point x="89" y="44" type="qcurve" smooth="yes"/>
      <point x="89" y="58" type="line" smooth="yes"/>
      <point x="89" y="117"/>
      <point x="150" y="117" type="qcurve" smooth="yes"/>
      <point x="211" y="117"/>
      <point x="211" y="58" type="qcurve" smooth="yes"/>
      <point x="211" y="44" type="line" smooth="yes"/>
      <point x="211" y="3"/>
      <point x="163" y="-95"/>
      <point x="120" y="-133" type="qcurve"/>
    </contour>
  </outline>
</glyph>
<glyph name="period" format="2">
  <advance width="300"/>
  <unicode hex="002E"/>
  <outline>
    <contour>
      <point x="150" y="-12" type="qcurve" smooth="yes"/>
      <point x="89" y="-12"/>
      <point x="89" y="46" type="qcurve" smooth="yes"/>
      <point x="89" y="59" type="line" smooth="yes"/>
      <point x="89" y="117"/>
      <point x="150" y="117" type="qcurve" smooth="yes"/>
      <point x="211" y="117"/>
      <point x="211" y="59" type="qcurve" smooth="yes"/>
      <point x="211" y="46" type="line" smooth="yes"/>
      <point x="211" y="-12"/>
    </contour>
  </outline>
</glyph>
<glyph name="five" format="2">
  <advance width="600"/>
  <unicode hex="0035"/>
  <outline>
    <contour>
      <point x="295" y="-12" type="qcurve" smooth="yes"/>
      <point x="153" y="-12"/>
      <point x="77" y="107" type="qcurve"/>
      <point x="140" y="155" type="line"/>
      <point x="165" y="113"/>
      <point x="200" y="88" type="qcurve"/>
      <point x="231" y="63"/>
      <point x="295" y="63" type="qcurve" smooth="yes"/>
      <point x="367" y="63"/>
      <point x="441" y="139"/>
      <point x="441" y="208" type="qcurve" smooth="yes"/>
      <point x="441" y="218" type="line"/>
      <point x="439" y="363"/>
      <point x="295" y="363" type="qcurve" smooth="yes"/>
      <point x="247" y="363"/>
      <point x="191" y="329"/>
      <point x="170" y="304" type="qcurve"/>
      <point x="99" y="314" type="line"/>
      <point x="124" y="698" type="line"/>
      <point x="498" y="698" type="line"/>
      <point x="498" y="624" type="line"/>
      <point x="192" y="624" type="line"/>
      <point x="172" y="358" type="line"/>
      <point x="179" y="358" type="line"/>
      <point x="203" y="394"/>
      <point x="267" y="435"/>
      <point x="322" y="435" type="qcurve" smooth="yes"/>
      <point x="412" y="435"/>
      <point x="530" y="321"/>
      <point x="530" y="219" type="qcurve" smooth="yes"/>
      <point x="530" y="117"/>
      <point x="405" y="-12"/>
    </contour>
  </outline>
</glyph>
<glyph name="at" format="2">
  <advance width="891"/>
  <unicode hex="0040"/>
  <outline>
    <contour>
      <point x="437" y="135" type="qcurve" smooth="yes"/>
      <point x="541" y="135"/>
      <point x="541" y="231" type="qcurve" smooth="yes"/>
      <point x="541" y="353" type="line" smooth="yes"/>
      <point x="541" y="391"/>
      <point x="491" y="443"/>
      <point x="437" y="443" type="qcurve" smooth="yes"/>
      <point x="383" y="443"/>
      <point x="333" y="381"/>
      <point x="333" y="329" type="qcurve" smooth="yes"/>
      <point x="333" y="249" type="line" smooth="yes"/>
      <point x="333" y="197"/>
      <point x="383" y="135"/>
    </contour>
    <contour>
      <point x="447" y="-121" type="line" smooth="yes"/>
      <point x="275" y="-121"/>
      <point x="65" y="102"/>
      <point x="65" y="288" type="qcurve" smooth="yes"/>
      <point x="65" y="474"/>
      <point x="172" y="591" type="qcurve" smooth="yes"/>
      <point x="223" y="647"/>
      <point x="367" y="708"/>
      <point x="456" y="708" type="qcurve" smooth="yes"/>
      <point x="526" y="708"/>
      <point x="659" y="665"/>
      <point x="764" y="573"/>
      <point x="826" y="426"/>
      <point x="826" y="323" type="qcurve" smooth="yes"/>
      <point x="826" y="212"/>
      <point x="786" y="145" type="qcurve" smooth="yes"/>
      <point x="741" y="69"/>
      <point x="652" y="69" type="qcurve" smooth="yes"/>
      <point x="562" y="69"/>
      <point x="551" y="155" type="qcurve"/>
      <point x="547" y="155" type="line"/>
      <point x="527" y="115"/>
      <point x="469" y="69"/>
      <point x="423" y="69" type="qcurve" smooth="yes"/>
      <point x="353" y="69"/>
      <point x="301" y="123" type="qcurve"/>
      <point x="249" y="181"/>
      <point x="249" y="289" type="qcurve" smooth="yes"/>
      <point x="249" y="397"/>
      <point x="301" y="455" type="qcurve"/>
      <point x="353" y="509"/>
      <point x="423" y="509" type="qcurve" smooth="yes"/>
      <point x="505" y="509"/>
      <point x="537" y="432" type="qcurve"/>
      <point x="541" y="432" type="line"/>
      <point x="541" y="500" type="line"/>
      <point x="610" y="500" type="line"/>
      <point x="610" y="196" type="line" smooth="yes"/>
      <point x="610" y="157"/>
      <point x="637" y="130"/>
      <point x="665" y="130" type="qcurve" smooth="yes"/>
      <point x="712" y="130"/>
      <point x="760" y="226"/>
      <point x="760" y="310" type="qcurve" smooth="yes"/>
      <point x="760" y="356" type="line" smooth="yes"/>
      <point x="760" y="488"/>
      <point x="583" y="648"/>
      <point x="455" y="648" type="qcurve" smooth="yes"/>
      <point x="311" y="648"/>
      <point x="132" y="459"/>
      <point x="132" y="321" type="qcurve" smooth="yes"/>
      <point x="132" y="262" type="line" smooth="yes"/>
      <point x="132" y="120"/>
      <point x="220" y="30" type="qcurve"/>
      <point x="306" y="-60"/>
      <point x="448" y="-60" type="qcurve" smooth="yes"/>
      <point x="679" y="-60" type="line"/>
      <point x="679" y="-121" type="line"/>
    </contour>
  </outline>
</glyph>
<glyph name="P" format="2">
  <advance width="606"/>
  <unicode hex="0050"/>
  <outline>
    <contour>
      <point x="371" y="372" type="line"/>
      <point x="476" y="376"/>
      <point x="476" y="472" type="qcurve" smooth="yes"/>
      <point x="476" y="524" type="line"/>
      <point x="472" y="624"/>
      <point x="371" y="624" type="qcurve" smooth="yes"/>
      <point x="177" y="624" type="line"/>
      <point x="177" y="372" type="line"/>
    </contour>
    <contour>
      <point x="93" y="0" type="line"/>
      <point x="93" y="698" type="line"/>
      <point x="371" y="698" type="line" smooth="yes"/>
      <point x="465" y="698"/>
      <point x="566" y="591"/>
      <point x="566" y="498" type="qcurve" smooth="yes"/>
      <point x="566" y="405"/>
      <point x="465" y="298"/>
      <point x="371" y="298" type="qcurve" smooth="yes"/>
      <point x="177" y="298" type="line"/>
      <point x="177" y="0" type="line"/>
    </contour>
  </outline>
</glyph>
<glyph name="m" format="2">
  <advance width="873"/>
  <unicode hex="006D"/>
  <outline>
    <contour>
      <point x="713" y="0" type="line"/>
      <point x="713" y="317" type="line" smooth="yes"/>
      <point x="713" y="386"/>
      <point x="659" y="456"/>
      <point x="600" y="456" type="qcurve" smooth="yes"/>
      <point x="552" y="456"/>
      <point x="479" y="408"/>
      <point x="479" y="358" type="qcurve" smooth="yes"/>
      <point x="479" y="0" type="line"/>
      <point x="399" y="0" type="line"/>
      <point x="399" y="324" type="line" smooth="yes"/>
      <point x="399" y="456"/>
      <point x="288" y="456" type="qcurve" smooth="yes"/>
      <point x="240" y="456"/>
      <point x="165" y="408"/>
      <point x="165" y="358" type="qcurve" smooth="yes"/>
      <point x="165" y="0" type="line"/>
      <point x="85" y="0" type="line"/>
      <point x="85" y="516" type="line"/>
      <point x="165" y="516" type="line"/>
      <point x="165" y="432" type="line"/>
      <point x="169" y="432" type="line"/>
      <point x="208" y="528"/>
      <point x="308" y="528" type="qcurve" smooth="yes"/>
      <point x="359" y="528"/>
      <point x="444" y="479"/>
      <point x="466" y="423" type="qcurve"/>
      <point x="468" y="423" type="line"/>
      <point x="482" y="466"/>
      <point x="559" y="528"/>
      <point x="625" y="528" type="qcurve" smooth="yes"/>
      <point x="704" y="528"/>
      <point x="793" y="425"/>
      <point x="793" y="331" type="qcurve" smooth="yes"/>
      <point x="793" y="0" type="line"/>
    </contour>
  </outline>
</glyph>
<glyph name="threesuperior" format="2">
  <advance width="346"/>
  <unicode hex="00B3"/>
  <outline>
    <contour>
      <point x="160" y="323" type="qcurve" smooth="yes"/>
      <point x="105" y="323"/>
      <point x="42" y="362"/>
      <point x="24" y="389" type="qcurve"/>
      <point x="71" y="423" type="line"/>
      <point x="85" y="401"/>
      <point x="125" y="373"/>
      <point x="160" y="373" type="qcurve"/>
      <point x="237" y="376"/>
      <point x="237" y="434" type="qcurve" smooth="yes"/>
      <point x="237" y="440" type="line" smooth="yes"/>
      <point x="237" y="495"/>
      <point x="160" y="495" type="qcurve" smooth="yes"/>
      <point x="115" y="495" type="line"/>
      <point x="115" y="546" type="line"/>
      <point x="155" y="546" type="line" smooth="yes"/>
      <point x="230" y="546"/>
      <point x="230" y="602" type="qcurve"/>
      <point x="225" y="654"/>
      <point x="165" y="654" type="qcurve" smooth="yes"/>
      <point x="112" y="654"/>
      <point x="82" y="609" type="qcurve"/>
      <point x="39" y="643" type="line"/>
      <point x="79" y="704"/>
      <point x="167" y="704" type="qcurve" smooth="yes"/>
      <point x="224" y="704"/>
      <point x="297" y="654"/>
      <point x="297" y="609" type="qcurve" smooth="yes"/>
      <point x="297" y="573"/>
      <point x="252" y="531"/>
      <point x="219" y="524" type="qcurve"/>
      <point x="219" y="521" type="line"/>
      <point x="254" y="515"/>
      <point x="303" y="471"/>
      <point x="303" y="431" type="qcurve" smooth="yes"/>
      <point x="303" y="382"/>
      <point x="226" y="323"/>
    </contour>
  </outline>
</glyph>
<glyph name="ordmasculine" format="2">
  <advance width="398"/>
  <unicode hex="00BA"/>
  <outline>
    <contour>
      <point x="199" y="402" type="qcurve" smooth="yes"/>
      <point x="243" y="402"/>
      <point x="286" y="456"/>
      <point x="286" y="499" type="qcurve" smooth="yes"/>
      <point x="286" y="561" type="line" smooth="yes"/>
      <point x="286" y="604"/>
      <point x="243" y="658"/>
      <point x="199" y="658" type="qcurve" smooth="yes"/>
      <point x="155" y="658"/>
      <point x="112" y="604"/>
      <point x="112" y="561" type="qcurve" smooth="yes"/>
      <point x="112" y="499" type="line" smooth="yes"/>
      <point x="112" y="456"/>
      <point x="155" y="402"/>
    </contour>
    <contour>
      <point x="199" y="350" type="qcurve" smooth="yes"/>
      <point x="126" y="350"/>
      <point x="44" y="445"/>
      <point x="44" y="530" type="qcurve" smooth="yes"/>
      <point x="44" y="615"/>
      <point x="126" y="710"/>
      <point x="199" y="710" type="qcurve" smooth="yes"/>
      <point x="272" y="710"/>
      <point x="354" y="615"/>
      <point x="354" y="530" type="qcurve" smooth="yes"/>
      <point x="354" y="445"/>
      <point x="272" y="350"/>
    </contour>
  </outline>
</glyph>
<glyph name="Ograve" format="2">
  <advance width="708"/>
  <unicode hex="00D2"/>
  <outline>
    <contour>
      <point x="354" y="63" type="qcurve" smooth="yes"/>
      <point x="444" y="63"/>
      <point x="560" y="188"/>
      <point x="560" y="291" type="qcurve" smooth="yes"/>
      <point x="560" y="407" type="line" smooth="yes"/>
      <point x="560" y="511"/>
      <point x="444" y="635"/>
      <point x="354" y="635" type="qcurve" smooth="yes"/>
      <point x="264" y="635"/>
      <point x="148" y="511"/>
      <point x="148" y="407" type="qcurve" smooth="yes"/>
      <point x="148" y="291" type="line" smooth="yes"/>
      <point x="148" y="188"/>
      <point x="264" y="63"/>
    </contour>
    <contour>
      <point x="354" y="-12" type="qcurve" smooth="yes"/>
      <point x="218" y="-12"/>
      <point x="139" y="81" type="qcurve"/>
      <point x="58" y="174"/>
      <point x="58" y="349" type="qcurve" smooth="yes"/>
      <point x="58" y="525"/>
      <point x="139" y="617" type="qcurve"/>
      <point x="218" y="710"/>
      <point x="354" y="710" type="qcurve" smooth="yes"/>
      <point x="488" y="710"/>
      <point x="650" y="525"/>
      <point x="650" y="349" type="qcurve" smooth="yes"/>
      <point x="650" y="174"/>
      <point x="488" y="-12"/>
    </contour>
    <contour>
      <point x="241" y="914" type="line"/>
      <point x="314" y="949" type="line"/>
      <point x="399" y="779" type="line"/>
      <point x="347" y="755" type="line"/>
    </contour>
  </outline>
</glyph>
<glyph name="igrave" format="2">
  <advance width="250"/>
  <unicode hex="00EC"/>
  <outline>
    <contour>
      <point x="85" y="0" type="line"/>
      <point x="85" y="516" type="line"/>
      <point x="165" y="516" type="line"/>
      <point x="165" y="0" type="line"/>
    </contour>
    <contour>
      <point x="13" y="744" type="line"/>
      <point x="86" y="779" type="line"/>
      <point x="171" y="609" type="line"/>
      <point x="119" y="585" type="line"/>
    </contour>
  </outline>
</glyph>
<glyph name="cacute" format="2">
  <advance width="503"/>
  <unicode hex="0107"/>
  <outline>
    <contour>
      <point x="277" y="-12" type="qcurve" smooth="yes"/>
      <point x="169" y="-12"/>
      <point x="47" y="134"/>
      <point x="47" y="258" type="qcurve" smooth="yes"/>
      <point x="47" y="383"/>
      <point x="169" y="528"/>
      <point x="277" y="528" type="qcurve" smooth="yes"/>
      <point x="420" y="528"/>
      <point x="470" y="407" type="qcurve"/>
      <point x="403" y="373" type="line"/>
      <point x="373" y="457"/>
      <point x="277" y="457" type="qcurve" smooth="yes"/>
      <point x="205" y="457"/>
      <point x="133" y="370"/>
      <point x="133" y="302" type="qcurve" smooth="yes"/>
      <point x="133" y="214" type="line" smooth="yes"/>
      <point x="133" y="146"/>
      <point x="206" y="59"/>
      <point x="277" y="59" type="qcurve" smooth="yes"/>
      <point x="375" y="59"/>
      <point x="417" y="149" type="qcurve"/>
      <point x="475" y="110" type="line"/>
      <point x="450" y="53"/>
      <point x="351" y="-12"/>
    </contour>
    <contour>
      <point x="232" y="609" type="line"/>
      <point x="317" y="779" type="line"/>
      <point x="390" y="744" type="line"/>
      <point x="284" y="585" type="line"/>
    </contour>
  </outline>
</glyph>
<glyph name="Emacron" format="2">
  <advance width="583"/>
  <unicode hex="0112"/>
  <outline>
    <contour>
      <point x="93" y="0" type="line"/>
      <point x="93" y="698" type="line"/>
      <point x="519" y="698" type="line"/>
      <point x="519" y="624" type="line"/>
      <point x="177" y="624" type="line"/>
      <point x="177" y="390" type="line"/>
      <point x="499" y="390" type="line"/>
      <point x="499" y="316" type="line"/>
      <point x="177" y="316" type="line"/>
      <point x="177" y="74" type="line"/>
      <point x="519" y="74" type="line"/>
      <point x="519" y="0" type="line"/>
    </contour>
    <contour>
      <point x="164" y="807" type="line"/>
      <point x="164" y="875" type="line"/>
      <point x="444" y="875" type="line"/>
      <point x="444" y="807" type="line"/>
    </contour>
  </outline>
</glyph>
<glyph name="Itilde" format="2">
  <advance width="270"/>
  <unicode hex="0128"/>
  <outline>
    <contour>
      <point x="93" y="0" type="line"/>
      <point x="93" y="698" type="line"/>
      <point x="177" y="698" type="line"/>
      <point x="177" y="0" type="line"/>
    </contour>
    <contour>
      <point x="209" y="782" type="qcurve" smooth="yes"/>
      <point x="185" y="782"/>
      <point x="150" y="796"/>
      <point x="136" y="805" type="qcurve"/>
      <point x="86" y="832"/>
      <point x="59" y="832" type="qcurve" smooth="yes"/>
      <point x="42" y="832"/>
      <point x="16" y="818"/>
      <point x="1" y="805" type="qcurve"/>
      <point x="-32" y="845" type="line"/>
      <point x="3" y="898"/>
      <point x="63" y="898" type="qcurve" smooth="yes"/>
      <point x="87" y="898"/>
      <point x="122" y="884"/>
      <point x="136" y="875" type="qcurve"/>
      <point x="186" y="848"/>
      <point x="213" y="848" type="qcurve" smooth="yes"/>
      <point x="230" y="848"/>
      <point x="256" y="862"/>
      <point x="271" y="875" type="qcurve"/>
      <point x="304" y="835" type="line"/>
      <point x="269" y="782"/>
    </contour>
  </outline>
</glyph>
<glyph name="Ibreve" format="2">
  <advance width="270"/>
  <unicode hex="012C"/>
  <outline>
    <contour>
      <point x="93" y="0" type="line"/>
      <point x="93" y="698" type="line"/>
      <point x="177" y="698" type="line"/>
      <point x="177" y="0" type="line"/>
    </contour>
    <contour>
      <point x="136" y="766" type="qcurve" smooth="yes"/>
      <point x="17" y="766"/>
      <point x="-16" y="891" type="qcurve"/>
      <point x="29" y="913" type="line"/>
      <point x="50" y="880" type="line"/>
      <point x="62" y="858"/>
      <point x="98" y="829"/>
      <point x="136" y="829" type="qcurve" smooth="yes"/>
      <point x="174" y="829"/>
      <point x="209" y="857"/>
      <point x="222" y="880" type="qcurve"/>
      <point x="243" y="913" type="line"/>
      <point x="288" y="891" type="line"/>
      <point x="277" y="847"/>
      <point x="246" y="808" type="qcurve"/>
      <point x="209" y="766"/>
    </contour>
  </outline>
</glyph>
<glyph name="Ncommaaccent" format="2">
  <advance width="707"/>
  <unicode hex="0145"/>
  <outline>
    <contour>
      <point x="286" y="-245" type="line"/>
      <point x="306" y="-225"/>
      <point x="330" y="-190"/>
      <point x="337" y="-167" type="qcurve"/>
      <point x="302" y="-157"/>
      <point x="302" y="-123" type="qcurve" smooth="yes"/>
      <point x="302" y="-113" type="line"/>
      <point x="304" y="-66"/>
      <point x="353" y="-66" type="qcurve"/>
      <point x="404" y="-69"/>
      <point x="404" y="-113" type="qcurve" smooth="yes"/>
      <point x="404" y="-124" type="line" smooth="yes"/>
      <point x="404" y="-188"/>
      <point x="344" y="-245" type="qcurve"/>
    </contour>
    <contour>
      <point x="517" y="0" type="line"/>
      <point x="262" y="426" type="line"/>
      <point x="178" y="581" type="line"/>
      <point x="175" y="581" type="line"/>
      <point x="175" y="0" type="line"/>
      <point x="93" y="0" type="line"/>
      <point x="93" y="698" type="line"/>
      <point x="190" y="698" type="line"/>
      <point x="445" y="272" type="line"/>
      <point x="529" y="117" type="line"/>
      <point x="532" y="117" type="line"/>
      <point x="532" y="698" type="line"/>
      <point x="614" y="698" type="line"/>
      <point x="614" y="0" type="line"/>
    </contour>
  </outline>
</glyph>
<glyph name="napostrophe" format="2">
  <advance width="812"/>
  <unicode hex="0149"/>
  <outline>
    <contour>
      <point x="652" y="0" type="line"/>
      <point x="652" y="317" type="line" smooth="yes"/>
      <point x="652" y="456"/>
      <point x="535" y="456" type="qcurve" smooth="yes"/>
      <point x="487" y="456"/>
      <point x="409" y="408"/>
      <point x="409" y="358" type="qcurve" smooth="yes"/>
      <point x="409" y="0" type="line"/>
      <point x="329" y="0" type="line"/>
      <point x="329" y="516" type="line"/>
      <point x="409" y="516" type="line"/>
      <point x="409" y="432" type="line"/>
      <point x="413" y="432" type="line"/>
      <point x="452" y="528"/>
      <point x="559" y="528" type="qcurve" smooth="yes"/>
      <point x="639" y="528"/>
      <point x="732" y="425"/>
      <point x="732" y="331" type="qcurve" smooth="yes"/>
      <point x="732" y="0" type="line"/>
    </contour>
    <contour>
      <point x="45" y="500" type="line"/>
      <point x="104" y="559"/>
      <point x="120" y="624" type="qcurve"/>
      <point x="81" y="637"/>
      <point x="81" y="677" type="qcurve" smooth="yes"/>
      <point x="81" y="691" type="line" smooth="yes"/>
      <point x="81" y="750"/>
      <point x="142" y="750" type="qcurve" smooth="yes"/>
      <point x="203" y="750"/>
      <point x="203" y="691" type="qcurve" smooth="yes"/>
      <point x="203" y="677" type="line" smooth="yes"/>
      <point x="203" y="636"/>
      <point x="155" y="538"/>
      <point x="112" y="500" type="qcurve"/>
    </contour>
  </outline>
</glyph>
<glyph name="OE" format="2">
  <advance width="985"/>
  <unicode hex="0152"/>
  <outline>
    <contour>
      <point x="377" y="63" type="qcurve" smooth="yes"/>
      <point x="433" y="63"/>
      <point x="494" y="81" type="qcurve"/>
      <point x="494" y="617" type="line"/>
      <point x="433" y="635"/>
      <point x="377" y="635" type="qcurve" smooth="yes"/>
      <point x="259" y="635"/>
      <point x="148" y="511"/>
      <point x="148" y="407" type="qcurve" smooth="yes"/>
      <point x="148" y="291" type="line" smooth="yes"/>
      <point x="148" y="188"/>
      <point x="259" y="63"/>
    </contour>
    <contour>
      <point x="367" y="-12" type="qcurve" smooth="yes"/>
      <point x="223" y="-12"/>
      <point x="58" y="174"/>
      <point x="58" y="349" type="qcurve" smooth="yes"/>
      <point x="58" y="525"/>
      <point x="223" y="710"/>
      <point x="367" y="710" type="qcurve" smooth="yes"/>
      <point x="431" y="710"/>
      <point x="495" y="698" type="qcurve"/>
      <point x="921" y="698" type="line"/>
      <point x="921" y="624" type="line"/>
      <point x="578" y="624" type="line"/>
      <point x="578" y="390" type="line"/>
      <point x="901" y="390" type="line"/>
      <point x="901" y="316" type="line"/>
      <point x="578" y="316" type="line"/>
      <point x="578" y="74" type="line"/>
      <point x="921" y="74" type="line"/>
      <point x="921" y="0" type="line"/>
      <point x="495" y="0" type="line"/>
      <point x="431" y="-12"/>
    </contour>
  </outline>
</glyph>
<glyph name="Tcedilla" format="2">
  <advance width="572"/>
  <unicode hex="0162"/>
  <outline>
    <contour>
      <point x="219" y="-245" type="line"/>
      <point x="239" y="-225"/>
      <point x="263" y="-190"/>
      <point x="270" y="-167" type="qcurve"/>
      <point x="235" y="-157"/>
      <point x="235" y="-123" type="qcurve" smooth="yes"/>
      <point x="235" y="-113" type="line"/>
      <point x="237" y="-66"/>
      <point x="286" y="-66" type="qcurve"/>
      <point x="337" y="-69"/>
      <point x="337" y="-113" type="qcurve" smooth="yes"/>
      <point x="337" y="-124" type="line" smooth="yes"/>
      <point x="337" y="-188"/>
      <point x="277" y="-245" type="qcurve"/>
    </contour>
    <contour>
      <point x="244" y="0" type="line"/>
      <point x="244" y="624" type="line"/>
      <point x="22" y="624" type="line"/>
      <point x="22" y="698" type="line"/>
      <point x="550" y="698" type="line"/>
      <point x="550" y="624" type="line"/>
      <point x="328" y="624" type="line"/>
      <point x="328" y="0" type="line"/>
    </contour>
  </outline>
</glyph>
<glyph name="tcedilla" format="2">
  <advance width="351"/>
  <unicode hex="0163"/>
  <outline>
    <contour>
      <point x="146" y="-245" type="line"/>
      <point x="166" y="-225"/>
      <point x="190" y="-190"/>
      <point x="197" y="-167" type="qcurve"/>
      <point x="162" y="-157"/>
      <point x="162" y="-123" type="qcurve" smooth="yes"/>
      <point x="162" y="-113" type="line"/>
      <point x="164" y="-66"/>
      <point x="213" y="-66" type="qcurve"/>
      <point x="264" y="-69"/>
      <point x="264" y="-113" type="qcurve" smooth="yes"/>
      <point x="264" y="-124" type="line" smooth="yes"/>
      <point x="264" y="-188"/>
      <point x="204" y="-245" type="qcurve"/>
    </contour>
    <contour>
      <point x="199" y="0" type="line" smooth="yes"/>
      <point x="157" y="0"/>
      <point x="114" y="47"/>
      <point x="114" y="85" type="qcurve" smooth="yes"/>
      <point x="114" y="446" type="line"/>
      <point x="29" y="446" type="line"/>
      <point x="29" y="516" type="line"/>
      <point x="77" y="516" type="line" smooth="yes"/>
      <point x="103" y="516"/>
      <point x="122" y="537"/>
      <point x="122" y="563" type="qcurve" smooth="yes"/>
      <point x="122" y="659" type="line"/>
      <point x="194" y="659" type="line"/>
      <point x="194" y="516" type="line"/>
      <point x="307" y="516" type="line"/>
      <point x="307" y="446" type="line"/>
      <point x="194" y="446" type="line"/>
      <point x="194" y="70" type="line"/>
      <point x="299" y="70" type="line"/>
      <point x="299" y="0" type="line"/>
    </contour>
  </outline>
</glyph>
<glyph name="Tcaron" format="2">
  <advance width="572"/>
  <unicode hex="0164"/>
  <outline>
    <contour>
      <point x="244" y="0" type="line"/>
      <point x="244" y="624" type="line"/>
      <point x="22" y="624" type="line"/>
      <point x="22" y="698" type="line"/>
      <point x="550" y="698" type="line"/>
      <point x="550" y="624" type="line"/>
      <point x="328" y="624" type="line"/>
      <point x="328" y="0" type="line"/>
    </contour>
    <contour>
      <point x="237" y="769" type="line"/>
      <point x="126" y="912" type="line"/>
      <point x="170" y="943" type="line"/>
      <point x="287" y="826" type="line"/>
      <point x="404" y="943" type="line"/>
      <point x="448" y="912" type="line"/>
      <point x="337" y="769" type="line"/>
    </contour>
  </outline>
</glyph>
<glyph name="Ycircumflex" format="2">
  <advance width="593"/>
  <unicode hex="0176"/>
  <outline>
    <contour>
      <point x="253" y="0" type="line"/>
      <point x="253" y="276" type="line"/>
      <point x="13" y="698" type="line"/>
      <point x="109" y="698" type="line"/>
      <point x="295" y="362" type="line"/>
      <point x="298" y="362" type="line"/>
      <point x="484" y="698" type="line"/>
      <point x="580" y="698" type="line"/>
      <point x="337" y="279" type="line"/>
      <point x="337" y="0" type="line"/>
    </contour>
    <contour>
      <point x="298" y="878" type="line"/>
      <point x="181" y="761" type="line"/>
      <point x="137" y="792" type="line"/>
      <point x="248" y="935" type="line"/>
      <point x="348" y="935" type="line"/>
      <point x="459" y="792" type="line"/>
      <point x="415" y="761" type="line"/>
    </contour>
  </outline>
</glyph>
<glyph name="dotaccent" format="2">
  <advance width="600"/>
  <unicode hex="02D9"/>
  <outline>
    <contour>
      <point x="300" y="616" type="qcurve" smooth="yes"/>
      <point x="249" y="616"/>
      <point x="249" y="662" type="qcurve" smooth="yes"/>
      <point x="249" y="673" type="line" smooth="yes"/>
      <point x="249" y="719"/>
      <point x="300" y="719" type="qcurve" smooth="yes"/>
      <point x="351" y="719"/>
      <point x="351" y="673" type="qcurve" smooth="yes"/>
      <point x="351" y="662" type="line" smooth="yes"/>
      <point x="351" y="616"/>
    </contour>
  </outline>
</glyph>
<glyph name="macroncomb" format="2">
  <unicode hex="0304"/>
  <outline>
    <contour>
      <point x="-139" y="637" type="line"/>
      <point x="-139" y="705" type="line"/>
      <point x="141" y="705" type="line"/>
      <point x="141" y="637" type="line"/>
    </contour>
  </outline>
</glyph>
<glyph name="caroncomb" format="2">
  <unicode hex="030C"/>
  <outline>
    <contour>
      <point x="-49" y="599" type="line"/>
      <point x="-160" y="742" type="line"/>
      <point x="-116" y="773" type="line"/>
      <point x="1" y="656" type="line"/>
      <point x="118" y="773" type="line"/>
      <point x="162" y="742" type="line"/>
      <point x="51" y="599" type="line"/>
    </contour>
  </outline>
</glyph>
<glyph name="iotadieresistonos" format="2">
  <advance width="295"/>
  <unicode hex="0390"/>
  <outline>
    <contour>
      <point x="270" y="0" type="line"/>
      <point x="170" y="0" type="line" smooth="yes"/>
      <point x="128" y="0"/>
      <point x="85" y="47"/>
      <point x="85" y="85" type="qcurve" smooth="yes"/>
      <point x="85" y="516" type="line"/>
      <point x="165" y="516" type="line"/>
      <point x="165" y="70" type="line"/>
      <point x="270" y="70" type="line"/>
    </contour>
    <contour>
      <point x="143" y="585" type="line"/>
      <point x="94" y="592" type="line"/>
      <point x="123" y="780" type="line"/>
      <point x="195" y="769" type="line"/>
    </contour>
    <contour>
      <point x="21" y="618" type="qcurve" smooth="yes"/>
      <point x="-2" y="618"/>
      <point x="-24" y="643"/>
      <point x="-24" y="664" type="qcurve" smooth="yes"/>
      <point x="-24" y="675" type="line" smooth="yes"/>
      <point x="-24" y="696"/>
      <point x="-2" y="721"/>
      <point x="21" y="721" type="qcurve" smooth="yes"/>
      <point x="44" y="721"/>
      <point x="66" y="696"/>
      <point x="66" y="675" type="qcurve" smooth="yes"/>
      <point x="66" y="664" type="line" smooth="yes"/>
      <point x="66" y="643"/>
      <point x="44" y="618"/>
    </contour>
    <contour>
      <point x="255" y="618" type="qcurve" smooth="yes"/>
      <point x="232" y="618"/>
      <point x="210" y="643"/>
      <point x="210" y="664" type="qcurve" smooth="yes"/>
      <point x="210" y="675" type="line" smooth="yes"/>
      <point x="210" y="696"/>
      <point x="232" y="721"/>
      <point x="255" y="721" type="qcurve" smooth="yes"/>
      <point x="278" y="721"/>
      <point x="300" y="696"/>
      <point x="300" y="675" type="qcurve" smooth="yes"/>
      <point x="300" y="664" type="line" smooth="yes"/>
      <point x="300" y="643"/>
      <point x="278" y="618"/>
    </contour>
  </outline>
</glyph>
<glyph name="Phi" format="2">
  <advance width="852"/>
  <unicode hex="03A6"/>
  <outline>
    <contour>
      <point x="486" y="101" type="line" smooth="yes"/>
      <point x="537" y="101"/>
      <point x="619" y="135"/>
      <point x="677" y="195"/>
      <point x="708" y="276"/>
      <point x="708" y="323" type="qcurve" smooth="yes"/>
      <point x="708" y="385" type="line" smooth="yes"/>
      <point x="708" y="432"/>
      <point x="677" y="513"/>
      <point x="619" y="573"/>
      <point x="537" y="607"/>
      <point x="486" y="607" type="qcurve" smooth="yes"/>
      <point x="466" y="607" type="line"/>
      <point x="466" y="101" type="line"/>
    </contour>
    <contour>
      <point x="386" y="607" type="line"/>
      <point x="366" y="607" type="line" smooth="yes"/>
      <point x="315" y="607"/>
      <point x="233" y="573"/>
      <point x="175" y="513"/>
      <point x="144" y="432"/>
      <point x="144" y="385" type="qcurve" smooth="yes"/>
      <point x="144" y="323" type="line" smooth="yes"/>
      <point x="144" y="276"/>
      <point x="175" y="195"/>
      <point x="233" y="135"/>
      <point x="315" y="101"/>
      <point x="366" y="101" type="qcurve" smooth="yes"/>
      <point x="386" y="101" type="line"/>
    </contour>
    <contour>
      <point x="384" y="31" type="line"/>
      <point x="366" y="31" type="line" smooth="yes"/>
      <point x="290" y="31"/>
      <point x="174" y="80"/>
      <point x="95" y="167"/>
      <point x="54" y="285"/>
      <point x="54" y="354" type="qcurve" smooth="yes"/>
      <point x="54" y="423"/>
      <point x="95" y="541"/>
      <point x="174" y="628"/>
      <point x="290" y="677"/>
      <point x="366" y="677" type="qcurve" smooth="yes"/>
      <point x="384" y="677" type="line"/>
      <point x="384" y="725" type="line"/>
      <point x="468" y="725" type="line"/>
      <point x="468" y="677" type="line"/>
      <point x="486" y="677" type="line" smooth="yes"/>
      <point x="562" y="677"/>
      <point x="678" y="628"/>
      <point x="757" y="541"/>
      <point x="798" y="423"/>
      <point x="798" y="354" type="qcurve" smooth="yes"/>
      <point x="798" y="285"/>
      <point x="757" y="167"/>
      <point x="678" y="80"/>
      <point x="562" y="31"/>
      <point x="486" y="31" type="qcurve" smooth="yes"/>
      <point x="468" y="31" type="line"/>
      <point x="468" y="-29" type="line"/>
      <point x="384" y="-29" type="line"/>
    </contour>
  </outline>
</glyph>
<glyph name="Jecyr" format="2">
  <advance width="510"/>
  <unicode hex="0408"/>
  <outline>
    <contour>
      <point x="222" y="-12" type="qcurve" smooth="yes"/>
      <point x="141" y="-12"/>
      <point x="42" y="74"/>
      <point x="28" y="147" type="qcurve"/>
      <point x="104" y="165" type="line"/>
      <point x="125" y="63"/>
      <point x="224" y="63" type="qcurve" smooth="yes"/>
      <point x="278" y="63"/>
      <point x="338" y="129"/>
      <point x="338" y="196" type="qcurve" smooth="yes"/>
      <point x="338" y="698" type="line"/>
      <point x="422" y="698" type="line"/>
      <point x="422" y="181" type="line" smooth="yes"/>
      <point x="422" y="93"/>
      <point x="311" y="-12"/>
    </contour>
  </outline>
</glyph>
<glyph name="Njecyr" format="2">
  <advance width="1037"/>
  <unicode hex="040A"/>
  <outline>
    <contour>
      <point x="802" y="74" type="line" smooth="yes"/>
      <point x="907" y="74"/>
      <point x="907" y="183" type="qcurve" smooth="yes"/>
      <point x="907" y="235" type="line"/>
      <point x="904" y="344"/>
      <point x="802" y="344" type="qcurve" smooth="yes"/>
      <point x="594" y="344" type="line"/>
      <point x="594" y="74" type="line"/>
    </contour>
    <contour>
      <point x="510" y="0" type="line"/>
      <point x="510" y="316" type="line"/>
      <point x="177" y="316" type="line"/>
      <point x="177" y="0" type="line"/>
      <point x="93" y="0" type="line"/>
      <point x="93" y="698" type="line"/>
      <point x="177" y="698" type="line"/>
      <point x="177" y="390" type="line"/>
      <point x="510" y="390" type="line"/>
      <point x="510" y="698" type="line"/>
      <point x="594" y="698" type="line"/>
      <point x="594" y="418" type="line"/>
      <point x="802" y="418" type="line" smooth="yes"/>
      <point x="896" y="418"/>
      <point x="997" y="309"/>
      <point x="997" y="209" type="qcurve" smooth="yes"/>
      <point x="997" y="109"/>
      <point x="896" y="0"/>
      <point x="802" y="0" type="qcurve" smooth="yes"/>
    </contour>
  </outline>
</glyph>
<glyph name="Dzhecyr" format="2">
  <advance width="693"/>
  <unicode hex="040F"/>
  <outline>
    <contour>
      <point x="308" y="-150" type="line"/>
      <point x="308" y="0" type="line"/>
      <point x="93" y="0" type="line"/>
      <point x="93" y="698" type="line"/>
      <point x="177" y="698" type="line"/>
      <point x="177" y="74" type="line"/>
      <point x="516" y="74" type="line"/>
      <point x="516" y="698" type="line"/>
      <point x="600" y="698" type="line"/>
      <point x="600" y="0" type="line"/>
      <point x="385" y="0" type="line"/>
      <point x="385" y="-150" type="line"/>
    </contour>
  </outline>
</glyph>
<glyph name="Zecyr" format="2">
  <advance width="593"/>
  <unicode hex="0417"/>
  <outline>
    <contour>
      <point x="281" y="-12" type="qcurve" smooth="yes"/>
      <point x="120" y="-12"/>
      <point x="37" y="112" type="qcurve"/>
      <point x="98" y="161" type="line"/>
      <point x="130" y="114"/>
      <point x="217" y="63"/>
      <point x="281" y="63" type="qcurve" smooth="yes"/>
      <point x="356" y="63"/>
      <point x="440" y="124"/>
      <point x="440" y="188" type="qcurve" smooth="yes"/>
      <point x="440" y="201" type="line" smooth="yes"/>
      <point x="440" y="255"/>
      <point x="368" y="320"/>
      <point x="290" y="320" type="qcurve" smooth="yes"/>
      <point x="185" y="320" type="line"/>
      <point x="185" y="394" type="line"/>
      <point x="284" y="394" type="line" smooth="yes"/>
      <point x="358" y="394"/>
      <point x="424" y="454"/>
      <point x="424" y="514" type="qcurve" smooth="yes"/>
      <point x="424" y="528" type="line" smooth="yes"/>
      <point x="424" y="579"/>
      <point x="357" y="635"/>
      <point x="288" y="635" type="qcurve" smooth="yes"/>
      <point x="174" y="635"/>
      <point x="123" y="555" type="qcurve"/>
      <point x="58" y="597" type="line"/>
      <point x="95" y="651"/>
      <point x="202" y="710"/>
      <point x="288" y="710" type="qcurve" smooth="yes"/>
      <point x="402" y="710"/>
      <point x="514" y="610"/>
      <point x="514" y="527" type="qcurve" smooth="yes"/>
      <point x="514" y="388"/>
      <point x="381" y="362" type="qcurve"/>
      <point x="381" y="357" type="line"/>
      <point x="444" y="351"/>
      <point x="530" y="271"/>
      <point x="530" y="193" type="qcurve" smooth="yes"/>
      <point x="530" y="102"/>
      <point x="464" y="44" type="qcurve"/>
      <point x="397" y="-12"/>
    </contour>
  </outline>
</glyph>
<glyph name="Ylongcyr" format="2">
  <advance width="875"/>
  <unicode hex="042B"/>
  <outline>
    <contour>
      <point x="385" y="74" type="line" smooth="yes"/>
      <point x="490" y="74"/>
      <point x="490" y="183" type="qcurve" smooth="yes"/>
      <point x="490" y="235" type="line" smooth="yes"/>
      <point x="490" y="290"/>
      <point x="435" y="344"/>
      <point x="385" y="344" type="qcurve" smooth="yes"/>
      <point x="177" y="344" type="line"/>
      <point x="177" y="74" type="line"/>
    </contour>
    <contour>
      <point x="698" y="0" type="line"/>
      <point x="698" y="698" type="line"/>
      <point x="782" y="698" type="line"/>
      <point x="782" y="0" type="line"/>
    </contour>
    <contour>
      <point x="93" y="0" type="line"/>
      <point x="93" y="698" type="line"/>
      <point x="177" y="698" type="line"/>
      <point x="177" y="418" type="line"/>
      <point x="385" y="418" type="line" smooth="yes"/>
      <point x="479" y="418"/>
      <point x="580" y="309"/>
      <point x="580" y="209" type="qcurve" smooth="yes"/>
      <point x="580" y="109"/>
      <point x="479" y="0"/>
      <point x="385" y="0" type="qcurve" smooth="yes"/>
    </contour>
  </outline>
</glyph>
<glyph name="Yucyr" format="2">
  <advance width="960"/>
  <unicode hex="042E"/>
  <outline>
    <contour>
      <point x="616" y="63" type="qcurve" smooth="yes"/>
      <point x="707" y="63"/>
      <point x="812" y="182"/>
      <point x="812" y="291" type="qcurve" smooth="yes"/>
      <point x="812" y="407" type="line" smooth="yes"/>
      <point x="812" y="516"/>
      <point x="707" y="635"/>
      <point x="616" y="635" type="qcurve" smooth="yes"/>
      <point x="525" y="635"/>
      <point x="420" y="516"/>
      <point x="420" y="407" type="qcurve" smooth="yes"/>
      <point x="420" y="291" type="line" smooth="yes"/>
      <point x="420" y="182"/>
      <point x="525" y="63"/>
    </contour>
    <contour>
      <point x="616" y="-12" type="qcurve" smooth="yes"/>
      <point x="351" y="-12"/>
      <point x="330" y="316" type="qcurve"/>
      <point x="177" y="316" type="line"/>
      <point x="177" y="0" type="line"/>
      <point x="93" y="0" type="line"/>
      <point x="93" y="698" type="line"/>
      <point x="177" y="698" type="line"/>
      <point x="177" y="390" type="line"/>
      <point x="332" y="390" type="line"/>
      <point x="339" y="547"/>
      <point x="488" y="710"/>
      <point x="616" y="710" type="qcurve" smooth="yes"/>
      <point x="751" y="710"/>
      <point x="902" y="529"/>
      <point x="902" y="349" type="qcurve" smooth="yes"/>
      <point x="902" y="169"/>
      <point x="751" y="-12"/>
    </contour>
  </outline>
</glyph>
<glyph name="vecyr" format="2">
  <advance width="558"/>
  <unicode hex="0432"/>
  <outline>
    <contour>
      <point x="334" y="66" type="line"/>
      <point x="412" y="69"/>
      <point x="412" y="139" type="qcurve" smooth="yes"/>
      <point x="412" y="162" type="line" smooth="yes"/>
      <point x="412" y="197"/>
      <point x="370" y="235"/>
      <point x="334" y="235" type="qcurve" smooth="yes"/>
      <point x="165" y="235" type="line"/>
      <point x="165" y="66" type="line"/>
    </contour>
    <contour>
      <point x="324" y="300" type="line"/>
      <point x="394" y="303"/>
      <point x="394" y="364" type="qcurve" smooth="yes"/>
      <point x="394" y="386" type="line"/>
      <point x="390" y="450"/>
      <point x="324" y="450" type="qcurve" smooth="yes"/>
      <point x="165" y="450" type="line"/>
      <point x="165" y="300" type="line"/>
    </contour>
    <contour>
      <point x="85" y="0" type="line"/>
      <point x="85" y="516" type="line"/>
      <point x="345" y="516" type="line" smooth="yes"/>
      <point x="408" y="516"/>
      <point x="480" y="445"/>
      <point x="480" y="385" type="qcurve" smooth="yes"/>
      <point x="480" y="288"/>
      <point x="379" y="276" type="qcurve"/>
      <point x="379" y="272" type="line"/>
      <point x="439" y="266"/>
      <point x="498" y="202"/>
      <point x="498" y="154" type="qcurve" smooth="yes"/>
      <point x="498" y="93"/>
      <point x="424" y="0"/>
      <point x="358" y="0" type="qcurve" smooth="yes"/>
    </contour>
  </outline>
</glyph>
<glyph name="gecyr" format="2">
  <advance width="435"/>
  <unicode hex="0433"/>
  <outline>
    <contour>
      <point x="85" y="0" type="line"/>
      <point x="85" y="516" type="line"/>
      <point x="411" y="516" type="line"/>
      <point x="411" y="446" type="line"/>
      <point x="165" y="446" type="line"/>
      <point x="165" y="0" type="line"/>
    </contour>
  </outline>
</glyph>
<glyph name="yacyr" format="2">
  <advance width="535"/>
  <unicode hex="044F"/>
  <outline>
    <contour>
      <point x="370" y="446" type="line"/>
      <point x="234" y="446" type="line" smooth="yes"/>
      <point x="139" y="446"/>
      <point x="139" y="372" type="qcurve" smooth="yes"/>
      <point x="139" y="339" type="line" smooth="yes"/>
      <point x="139" y="299"/>
      <point x="189" y="266"/>
      <point x="234" y="266" type="qcurve" smooth="yes"/>
      <point x="370" y="266" type="line"/>
    </contour>
    <contour>
      <point x="370" y="0" type="line"/>
      <point x="370" y="198" type="line"/>
      <point x="236" y="198" type="line"/>
      <point x="182" y="71" type="line" smooth="yes"/>
      <point x="164" y="30"/>
      <point x="121" y="0"/>
      <point x="94" y="0" type="qcurve" smooth="yes"/>
      <point x="39" y="0" type="line"/>
      <point x="39" y="70" type="line"/>
      <point x="96" y="70" type="line"/>
      <point x="129" y="146" type="line" smooth="yes"/>
      <point x="152" y="197"/>
      <point x="192" y="202" type="qcurve"/>
      <point x="192" y="206" type="line"/>
      <point x="123" y="212"/>
      <point x="53" y="290"/>
      <point x="53" y="356" type="qcurve" smooth="yes"/>
      <point x="53" y="431"/>
      <point x="143" y="516"/>
      <point x="222" y="516" type="qcurve" smooth="yes"/>
      <point x="450" y="516" type="line"/>
      <point x="450" y="0" type="line"/>
    </contour>
  </outline>
</glyph>
<glyph name="dzecyr" format="2">
  <advance width="487"/>
  <unicode hex="0455"/>
  <outline>
    <contour>
      <point x="240" y="-12" type="qcurve" smooth="yes"/>
      <point x="168" y="-12"/>
      <point x="71" y="43"/>
      <point x="36" y="89" type="qcurve"/>
      <point x="93" y="135" type="line"/>
      <point x="154" y="56"/>
      <point x="246" y="56" type="qcurve"/>
      <point x="354" y="61"/>
      <point x="354" y="140" type="qcurve" smooth="yes"/>
      <point x="354" y="170"/>
      <point x="314" y="212"/>
      <point x="264" y="221" type="qcurve"/>
      <point x="223" y="227" type="line" smooth="yes"/>
      <point x="151" y="236"/>
      <point x="105" y="271" type="qcurve"/>
      <point x="57" y="304"/>
      <point x="57" y="376" type="qcurve" smooth="yes"/>
      <point x="57" y="453"/>
      <point x="163" y="528"/>
      <point x="241" y="528" type="qcurve" smooth="yes"/>
      <point x="304" y="528"/>
      <point x="389" y="484"/>
      <point x="421" y="445" type="qcurve"/>
      <point x="368" y="397" type="line"/>
      <point x="351" y="422"/>
      <point x="285" y="460"/>
      <point x="235" y="460" type="qcurve" smooth="yes"/>
      <point x="185" y="460"/>
      <point x="134" y="417"/>
      <point x="134" y="380" type="qcurve" smooth="yes"/>
      <point x="134" y="342"/>
      <point x="185" y="307"/>
      <point x="233" y="300" type="qcurve" smooth="yes"/>
      <point x="273" y="294" type="line" smooth="yes"/>
      <point x="358" y="281"/>
      <point x="431" y="208"/>
      <point x="431" y="149" type="qcurve" smooth="yes"/>
      <point x="431" y="74"/>
      <point x="329" y="-12"/>
    </contour>
  </outline>
</glyph>
<glyph name="ushortcyr" format="2">
  <advance width="499"/>
  <unicode hex="045E"/>
  <outline>
    <contour>
      <point x="90" y="-200" type="line"/>
      <point x="90" y="-130" type="line"/>
      <point x="171" y="-130" type="line"/>
      <point x="210" y="-20" type="line"/>
      <point x="17" y="516" type="line"/>
      <point x="97" y="516" type="line"/>
      <point x="221" y="165" type="line"/>
      <point x="245" y="81" type="line"/>
      <point x="250" y="81" type="line"/>
      <point x="278" y="165"/>
      <point x="403" y="516" type="qcurve"/>
      <point x="482" y="516" type="line"/>
      <point x="251" y="-120" type="line" smooth="yes"/>
      <point x="235" y="-166"/>
      <point x="187" y="-200"/>
      <point x="131" y="-200" type="qcurve" smooth="yes"/>
    </contour>
    <contour>
      <point x="251" y="596" type="qcurve" smooth="yes"/>
      <point x="154" y="596"/>
      <point x="114" y="674" type="qcurve" smooth="yes"/>
      <point x="94" y="712" type="line"/>
      <point x="164" y="743" type="line"/>
      <point x="199" y="661" type="line"/>
      <point x="227" y="655"/>
      <point x="251" y="655" type="qcurve" smooth="yes"/>
      <point x="275" y="655"/>
      <point x="303" y="661" type="qcurve"/>
      <point x="338" y="743" type="line"/>
      <point x="408" y="712" type="line"/>
      <point x="388" y="674" type="line" smooth="yes"/>
      <point x="348" y="596"/>
    </contour>
  </outline>
</glyph>
<glyph name="zetailcyr" format="2">
  <advance width="501"/>
  <unicode hex="0499"/>
  <outline>
    <contour>
      <point x="195" y="-140" type="line"/>
      <point x="195" y="-10" type="line"/>
      <point x="75" y="3"/>
      <point x="28" y="92" type="qcurve"/>
      <point x="88" y="140" type="line"/>
      <point x="130" y="59"/>
      <point x="231" y="59" type="qcurve" smooth="yes"/>
      <point x="294" y="59"/>
      <point x="355" y="105"/>
      <point x="355" y="141" type="qcurve" smooth="yes"/>
      <point x="355" y="153" type="line" smooth="yes"/>
      <point x="355" y="192"/>
      <point x="302" y="233"/>
      <point x="254" y="233" type="qcurve" smooth="yes"/>
      <point x="144" y="233" type="line"/>
      <point x="144" y="300" type="line"/>
      <point x="244" y="300" type="line"/>
      <point x="344" y="303"/>
      <point x="344" y="373" type="qcurve" smooth="yes"/>
      <point x="344" y="385" type="line" smooth="yes"/>
      <point x="344" y="457"/>
      <point x="229" y="457" type="qcurve" smooth="yes"/>
      <point x="135" y="457"/>
      <point x="92" y="381" type="qcurve"/>
      <point x="39" y="426" type="line"/>
      <point x="91" y="528"/>
      <point x="233" y="528" type="qcurve" smooth="yes"/>
      <point x="334" y="528"/>
      <point x="430" y="454"/>
      <point x="430" y="389" type="qcurve" smooth="yes"/>
      <point x="430" y="297"/>
      <point x="331" y="274" type="qcurve"/>
      <point x="331" y="270" type="line"/>
      <point x="386" y="261"/>
      <point x="441" y="199"/>
      <point x="441" y="150" type="qcurve" smooth="yes"/>
      <point x="441" y="83"/>
      <point x="349" y="-1"/>
      <point x="268" y="-10" type="qcurve"/>
      <point x="268" y="-140" type="line"/>
    </contour>
  </outline>
</glyph>
<glyph name="Kaverticalstrokecyr" format="2">
  <advance width="692"/>
  <unicode hex="049C"/>
  <outline>
    <contour>
      <point x="588" y="0" type="line" smooth="yes"/>
      <point x="534" y="0"/>
      <point x="496" y="68" type="qcurve"/>
      <point x="353" y="317" type="line"/>
      <point x="298" y="317" type="line"/>
      <point x="298" y="163" type="line"/>
      <point x="234" y="163" type="line"/>
      <point x="234" y="317" type="line"/>
      <point x="177" y="317" type="line"/>
      <point x="177" y="0" type="line"/>
      <point x="93" y="0" type="line"/>
      <point x="93" y="698" type="line"/>
      <point x="177" y="698" type="line"/>
      <point x="177" y="389" type="line"/>
      <point x="234" y="389" type="line"/>
      <point x="234" y="543" type="line"/>
      <point x="298" y="543" type="line"/>
      <point x="298" y="389" type="line"/>
      <point x="353" y="389" type="line"/>
      <point x="483" y="627" type="line"/>
      <point x="518" y="698"/>
      <point x="582" y="698" type="qcurve" smooth="yes"/>
      <point x="628" y="698" type="line"/>
      <point x="628" y="624" type="line"/>
      <point x="565" y="624" type="line"/>
      <point x="448" y="410" type="line" smooth="yes"/>
      <point x="434" y="383"/>
      <point x="409" y="361"/>
      <point x="392" y="356" type="qcurve"/>
      <point x="392" y="351" type="line"/>
      <point x="415" y="347"/>
      <point x="448" y="320"/>
      <point x="466" y="288" type="qcurve" smooth="yes"/>
      <point x="589" y="74" type="line"/>
      <point x="650" y="74" type="line"/>
      <point x="650" y="0" type="line"/>
    </contour>
  </outline>
</glyph>
<glyph name="abrevedotbelow" format="2">
  <advance width="526"/>
  <unicode hex="1EB7"/>
  <outline>
    <contour>
      <point x="230" y="56" type="qcurve"/>
      <point x="290" y="56"/>
      <point x="366" y="110"/>
      <point x="366" y="150" type="qcurve" smooth="yes"/>
      <point x="366" y="235" type="line"/>
      <point x="260" y="235" type="line" smooth="yes"/>
      <point x="128" y="235"/>
      <point x="128" y="157" type="qcurve" smooth="yes"/>
      <point x="128" y="136" type="line" smooth="yes"/>
      <point x="128" y="60"/>
    </contour>
    <contour>
      <point x="245" y="-169" type="qcurve" smooth="yes"/>
      <point x="194" y="-169"/>
      <point x="194" y="-123" type="qcurve" smooth="yes"/>
      <point x="194" y="-112" type="line" smooth="yes"/>
      <point x="194" y="-66"/>
      <point x="245" y="-66" type="qcurve" smooth="yes"/>
      <point x="296" y="-66"/>
      <point x="296" y="-112" type="qcurve" smooth="yes"/>
      <point x="296" y="-123" type="line" smooth="yes"/>
      <point x="296" y="-169"/>
    </contour>
    <contour>
      <point x="253" y="596" type="qcurve" smooth="yes"/>
      <point x="134" y="596"/>
      <point x="101" y="721" type="qcurve"/>
      <point x="146" y="743" type="line"/>
      <point x="167" y="710" type="line"/>
      <point x="179" y="688"/>
      <point x="215" y="659"/>
      <point x="253" y="659" type="qcurve" smooth="yes"/>
      <point x="291" y="659"/>
      <point x="326" y="687"/>
      <point x="339" y="710" type="qcurve"/>
      <point x="360" y="743" type="line"/>
      <point x="405" y="721" type="line"/>
      <point x="394" y="677"/>
      <point x="363" y="638" type="qcurve"/>
      <point x="326" y="596"/>
    </contour>
    <contour>
      <point x="217" y="-12" type="qcurve" smooth="yes"/>
      <point x="135" y="-12"/>
      <point x="44" y="72"/>
      <point x="44" y="144" type="qcurve" smooth="yes"/>
      <point x="44" y="295"/>
      <point x="264" y="295" type="qcurve" smooth="yes"/>
      <point x="366" y="295" type="line"/>
      <point x="366" y="346" type="line" smooth="yes"/>
      <point x="366" y="459"/>
      <point x="244" y="459" type="qcurve" smooth="yes"/>
      <point x="158" y="459"/>
      <point x="113" y="382" type="qcurve"/>
      <point x="65" y="427" type="line"/>
      <point x="86" y="470"/>
      <point x="178" y="528"/>
      <point x="248" y="528" type="qcurve" smooth="yes"/>
      <point x="342" y="528"/>
      <point x="446" y="436"/>
      <point x="446" y="354" type="qcurve" smooth="yes"/>
      <point x="446" y="0" type="line"/>
      <point x="371" y="0" type="line"/>
      <point x="371" y="84" type="line"/>
      <point x="366" y="84" type="line"/>
      <point x="348" y="36"/>
      <point x="271" y="-12"/>
    </contour>
  </outline>
</glyph>
<glyph name="ecircumflexhoi" format="2">
  <advance width="549"/>
  <unicode hex="1EC3"/>
  <outline>
    <contour>
      <point x="416" y="309" type="line" smooth="yes"/>
      <point x="416" y="378"/>
      <point x="341" y="461"/>
      <point x="279" y="461" type="qcurve" smooth="yes"/>
      <point x="213" y="461"/>
      <point x="131" y="373"/>
      <point x="131" y="305" type="qcurve" smooth="yes"/>
      <point x="131" y="298" type="line"/>
      <point x="416" y="298" type="line"/>
    </contour>
    <contour>
      <point x="279" y="-12" type="qcurve" smooth="yes"/>
      <point x="173" y="-12"/>
      <point x="111" y="62" type="qcurve"/>
      <point x="47" y="134"/>
      <point x="47" y="258" type="qcurve" smooth="yes"/>
      <point x="47" y="380"/>
      <point x="173" y="528"/>
      <point x="279" y="528" type="qcurve" smooth="yes"/>
      <point x="380" y="528"/>
      <point x="442" y="457" type="qcurve"/>
      <point x="502" y="386"/>
      <point x="502" y="276" type="qcurve" smooth="yes"/>
      <point x="502" y="238" type="line"/>
      <point x="131" y="238" type="line"/>
      <point x="131" y="214" type="line" smooth="yes"/>
      <point x="131" y="148"/>
      <point x="212" y="58"/>
      <point x="284" y="58" type="qcurve" smooth="yes"/>
      <point x="382" y="58"/>
      <point x="426" y="147" type="qcurve"/>
      <point x="483" y="106" type="line"/>
      <point x="458" y="52"/>
      <point x="352" y="-12"/>
    </contour>
    <contour>
      <point x="391" y="715" type="line"/>
      <point x="451" y="822" type="line"/>
      <point x="329" y="822" type="line"/>
      <point x="329" y="880" type="line"/>
      <point x="438" y="880" type="line" smooth="yes"/>
      <point x="508" y="880"/>
      <point x="508" y="825" type="qcurve" smooth="yes"/>
      <point x="508" y="782"/>
      <point x="459" y="722" type="qcurve" smooth="yes"/>
      <point x="435" y="692" type="line"/>
    </contour>
    <contour>
      <point x="279" y="693" type="line"/>
      <point x="160" y="581" type="line"/>
      <point x="119" y="611" type="line"/>
      <point x="229" y="745" type="line"/>
      <point x="329" y="745" type="line"/>
      <point x="439" y="611" type="line"/>
      <point x="398" y="581" type="line"/>
    </contour>
  </outline>
</glyph>
<glyph name="Ecircumflextilde" format="2">
  <advance width="583"/>
  <unicode hex="1EC4"/>
  <outline>
    <contour>
      <point x="93" y="0" type="line"/>
      <point x="93" y="698" type="line"/>
      <point x="519" y="698" type="line"/>
      <point x="519" y="624" type="line"/>
      <point x="177" y="624" type="line"/>
      <point x="177" y="390" type="line"/>
      <point x="499" y="390" type="line"/>
      <point x="499" y="316" type="line"/>
      <point x="177" y="316" type="line"/>
      <point x="177" y="74" type="line"/>
      <point x="519" y="74" type="line"/>
      <point x="519" y="0" type="line"/>
    </contour>
    <contour>
      <point x="376" y="942" type="qcurve" smooth="yes"/>
      <point x="352" y="942"/>
      <point x="317" y="956"/>
      <point x="303" y="965" type="qcurve"/>
      <point x="253" y="992"/>
      <point x="226" y="992" type="qcurve" smooth="yes"/>
      <point x="209" y="992"/>
      <point x="183" y="978"/>
      <point x="168" y="965" type="qcurve"/>
      <point x="137" y="1001" type="line"/>
      <point x="172" y="1054"/>
      <point x="232" y="1054" type="qcurve" smooth="yes"/>
      <point x="256" y="1054"/>
      <point x="291" y="1040"/>
      <point x="305" y="1031" type="qcurve"/>
      <point x="355" y="1004"/>
      <point x="382" y="1004" type="qcurve" smooth="yes"/>
      <point x="399" y="1004"/>
      <point x="425" y="1018"/>
      <point x="440" y="1031" type="qcurve"/>
      <point x="471" y="995" type="line"/>
      <point x="436" y="942"/>
    </contour>
    <contour>
      <point x="304" y="863" type="line"/>
      <point x="185" y="751" type="line"/>
      <point x="144" y="781" type="line"/>
      <point x="254" y="915" type="line"/>
      <point x="354" y="915" type="line"/>
      <point x="464" y="781" type="line"/>
      <point x="423" y="751" type="line"/>
    </contour>
  </outline>
</glyph>
<glyph name="Idotbelow" format="2">
  <advance width="270"/>
  <unicode hex="1ECA"/>
  <outline>
    <contour>
      <point x="135" y="-169" type="qcurve" smooth="yes"/>
      <point x="84" y="-169"/>
      <point x="84" y="-123" type="qcurve" smooth="yes"/>
      <point x="84" y="-112" type="line" smooth="yes"/>
      <point x="84" y="-66"/>
      <point x="135" y="-66" type="qcurve" smooth="yes"/>
      <point x="186" y="-66"/>
      <point x="186" y="-112" type="qcurve" smooth="yes"/>
      <point x="186" y="-123" type="line" smooth="yes"/>
      <point x="186" y="-169"/>
    </contour>
    <contour>
      <point x="93" y="0" type="line"/>
      <point x="93" y="698" type="line"/>
      <point x="177" y="698" type="line"/>
      <point x="177" y="0" type="line"/>
    </contour>
  </outline>
</glyph>
<glyph name="ohornacute" format="2">
  <advance width="560"/>
  <unicode hex="1EDB"/>
  <outline>
    <contour>
      <point x="280" y="59" type="qcurve" smooth="yes"/>
      <point x="345" y="59"/>
      <point x="427" y="139"/>
      <point x="427" y="221" type="qcurve" smooth="yes"/>
      <point x="427" y="295" type="line" smooth="yes"/>
      <point x="427" y="377"/>
      <point x="345" y="457"/>
      <point x="280" y="457" type="qcurve" smooth="yes"/>
      <point x="215" y="457"/>
      <point x="133" y="377"/>
      <point x="133" y="295" type="qcurve" smooth="yes"/>
      <point x="133" y="221" type="line" smooth="yes"/>
      <point x="133" y="139"/>
      <point x="215" y="59"/>
    </contour>
    <contour>
      <point x="280" y="-12" type="qcurve" smooth="yes"/>
      <point x="177" y="-12"/>
      <point x="112" y="62" type="qcurve" smooth="yes"/>
      <point x="47" y="134"/>
      <point x="47" y="258" type="qcurve" smooth="yes"/>
      <point x="47" y="380"/>
      <point x="177" y="528"/>
      <point x="280" y="528" type="qcurve" smooth="yes"/>
      <point x="321" y="528"/>
      <point x="356" y="516" type="qcurve"/>
      <point x="448" y="516" type="line"/>
      <point x="448" y="628" type="line"/>
      <point x="519" y="628" type="line"/>
      <point x="519" y="530" type="line" smooth="yes"/>
      <point x="519" y="503"/>
      <point x="494" y="467"/>
      <point x="457" y="467" type="qcurve" smooth="yes"/>
      <point x="436" y="467" type="line"/>
      <point x="480" y="422"/>
      <point x="513" y="318"/>
      <point x="513" y="258" type="qcurve" smooth="yes"/>
      <point x="513" y="134"/>
      <point x="448" y="62" type="qcurve"/>
      <point x="384" y="-12"/>
    </contour>
    <contour>
      <point x="236" y="609" type="line"/>
      <point x="321" y="779" type="line"/>
      <point x="394" y="744" type="line"/>
      <point x="288" y="585" type="line"/>
    </contour>
  </outline>
</glyph>
<glyph name="Ohorndotbelow" format="2">
  <advance width="708"/>
  <unicode hex="1EE2"/>
  <outline>
    <contour>
      <point x="354" y="63" type="qcurve" smooth="yes"/>
      <point x="444" y="63"/>
      <point x="560" y="188"/>
      <point x="560" y="291" type="qcurve" smooth="yes"/>
      <point x="560" y="407" type="line" smooth="yes"/>
      <point x="560" y="511"/>
      <point x="444" y="635"/>
      <point x="354" y="635" type="qcurve" smooth="yes"/>
      <point x="264" y="635"/>
      <point x="148" y="511"/>
      <point x="148" y="407" type="qcurve" smooth="yes"/>
      <point x="148" y="291" type="line" smooth="yes"/>
      <point x="148" y="188"/>
      <point x="264" y="63"/>
    </contour>
    <contour>
      <point x="354" y="-169" type="qcurve" smooth="yes"/>
      <point x="303" y="-169"/>
      <point x="303" y="-123" type="qcurve" smooth="yes"/>
      <point x="303" y="-112" type="line" smooth="yes"/>
      <point x="303" y="-66"/>
      <point x="354" y="-66" type="qcurve" smooth="yes"/>
      <point x="405" y="-66"/>
      <point x="405" y="-112" type="qcurve" smooth="yes"/>
      <point x="405" y="-123" type="line" smooth="yes"/>
      <point x="405" y="-169"/>
    </contour>
    <contour>
      <point x="354" y="-12" type="qcurve" smooth="yes"/>
      <point x="218" y="-12"/>
      <point x="139" y="81" type="qcurve"/>
      <point x="58" y="174"/>
      <point x="58" y="349" type="qcurve" smooth="yes"/>
      <point x="58" y="525"/>
      <point x="139" y="617" type="qcurve"/>
      <point x="218" y="710"/>
      <point x="354" y="710" type="qcurve" smooth="yes"/>
      <point x="402" y="710"/>
      <point x="444" y="698" type="qcurve"/>
      <point x="585" y="698" type="line"/>
      <point x="585" y="810" type="line"/>
      <point x="656" y="810" type="line"/>
      <point x="656" y="710" type="line" smooth="yes"/>
      <point x="656" y="683"/>
      <point x="631" y="647"/>
      <point x="593" y="647" type="qcurve" smooth="yes"/>
      <point x="540" y="647" type="line"/>
      <point x="599" y="594"/>
      <point x="650" y="444"/>
      <point x="650" y="349" type="qcurve" smooth="yes"/>
      <point x="650" y="174"/>
      <point x="488" y="-12"/>
    </contour>
  </outline>
</glyph>
<glyph name="yhoi" format="2">
  <advance width="499"/>
  <unicode hex="1EF7"/>
  <outline>
    <contour>
      <point x="90" y="-200" type="line"/>
      <point x="90" y="-130" type="line"/>
      <point x="171" y="-130" type="line"/>
      <point x="210" y="-20" type="line"/>
      <point x="17" y="516" type="line"/>
      <point x="97" y="516" type="line"/>
      <point x="221" y="165" type="line"/>
      <point x="245" y="81" type="line"/>
      <point x="250" y="81" type="line"/>
      <point x="278" y="165"/>
      <point x="403" y="516" type="qcurve"/>
      <point x="482" y="516" type="line"/>
      <point x="251" y="-120" type="line" smooth="yes"/>
      <point x="235" y="-166"/>
      <point x="187" y="-200"/>
      <point x="131" y="-200" type="qcurve" smooth="yes"/>
    </contour>
    <contour>
      <point x="226" y="600" type="line"/>
      <point x="284" y="704" type="line"/>
      <point x="166" y="704" type="line"/>
      <point x="166" y="765" type="line"/>
      <point x="275" y="765" type="line" smooth="yes"/>
      <point x="345" y="765"/>
      <point x="345" y="710" type="qcurve" smooth="yes"/>
      <point x="345" y="667"/>
      <point x="296" y="607" type="qcurve" smooth="yes"/>
      <point x="272" y="577" type="line"/>
    </contour>
  </outline>
</glyph>
<glyph name="quoteright" format="2">
  <advance width="273"/>
  <unicode hex="2019"/>
  <outline>
    <contour>
      <point x="44" y="500" type="line"/>
      <point x="103" y="559"/>
      <point x="119" y="624" type="qcurve"/>
      <point x="80" y="637"/>
      <point x="80" y="677" type="qcurve" smooth="yes"/>
      <point x="80" y="691" type="line" smooth="yes"/>
      <point x="80" y="750"/>
      <point x="141" y="750" type="qcurve" smooth="yes"/>
      <point x="202" y="750"/>
      <point x="202" y="691" type="qcurve" smooth="yes"/>
      <point x="202" y="677" type="line" smooth="yes"/>
      <point x="202" y="636"/>
      <point x="154" y="538"/>
      <point x="111" y="500" type="qcurve"/>
    </contour>
  </outline>
</glyph>
<glyph name="five.superior" format="2">
  <advance width="348"/>
  <unicode hex="2075"/>
  <outline>
    <contour>
      <point x="168" y="323" type="qcurve" smooth="yes"/>
      <point x="78" y="323"/>
      <point x="36" y="389" type="qcurve"/>
      <point x="81" y="423" type="line"/>
      <point x="95" y="401"/>
      <point x="134" y="373"/>
      <point x="169" y="373" type="qcurve" smooth="yes"/>
      <point x="245" y="373"/>
      <point x="245" y="448" type="qcurve" smooth="yes"/>
      <point x="245" y="514"/>
      <point x="169" y="514" type="qcurve" smooth="yes"/>
      <point x="143" y="514"/>
      <point x="112" y="497"/>
      <point x="101" y="485" type="qcurve"/>
      <point x="49" y="492" type="line"/>
      <point x="63" y="698" type="line"/>
      <point x="291" y="698" type="line"/>
      <point x="291" y="648" type="line"/>
      <point x="112" y="648" type="line"/>
      <point x="101" y="515" type="line"/>
      <point x="105" y="515" type="line"/>
      <point x="119" y="537"/>
      <point x="155" y="564"/>
      <point x="189" y="564" type="qcurve" smooth="yes"/>
      <point x="241" y="564"/>
      <point x="311" y="503"/>
      <point x="311" y="449" type="qcurve" smooth="yes"/>
      <point x="311" y="393"/>
      <point x="236" y="323"/>
    </contour>
  </outline>
</glyph>
<glyph name="turkishlira" format="2">
  <advance width="606"/>
  <unicode hex="20BA"/>
  <outline>
    <contour>
      <point x="110" y="0" type="line"/>
      <point x="110" y="248" type="line"/>
      <point x="13" y="201" type="line"/>
      <point x="13" y="270" type="line"/>
      <point x="110" y="317" type="line"/>
      <point x="110" y="408" type="line"/>
      <point x="13" y="361" type="line"/>
      <point x="13" y="430" type="line"/>
      <point x="110" y="477" type="line"/>
      <point x="110" y="698" type="line"/>
      <point x="194" y="698" type="line"/>
      <point x="194" y="517" type="line"/>
      <point x="410" y="621" type="line"/>
      <point x="410" y="552" type="line"/>
      <point x="194" y="448" type="line"/>
      <point x="194" y="357" type="line"/>
      <point x="410" y="461" type="line"/>
      <point x="410" y="392" type="line"/>
      <point x="194" y="288" type="line"/>
      <point x="194" y="73" type="line"/>
      <point x="302" y="73" type="line" smooth="yes"/>
      <point x="385" y="73"/>
      <point x="479" y="198"/>
      <point x="479" y="305" type="qcurve"/>
      <point x="561" y="305" type="line"/>
      <point x="561" y="178"/>
      <point x="497" y="89" type="qcurve"/>
      <point x="429" y="0"/>
      <point x="307" y="0" type="qcurve" smooth="yes"/>
    </contour>
  </outline>
</glyph>
<glyph name="oneseventh" format="2">
  <advance width="811"/>
  <unicode hex="2150"/>
  <outline>
    <contour>
      <point x="227" y="329" type="line"/>
      <point x="164" y="329" type="line"/>
      <point x="164" y="644" type="line"/>
      <point x="84" y="602" type="line"/>
      <point x="84" y="659" type="line"/>
      <point x="159" y="698" type="line"/>
      <point x="227" y="698" type="line"/>
    </contour>
    <contour>
      <point x="188" y="0" type="line"/>
      <point x="121" y="0" type="line"/>
      <point x="607" y="698" type="line"/>
      <point x="674" y="698" type="line"/>
    </contour>
    <contour>
      <point x="635" y="0" type="line"/>
      <point x="568" y="0" type="line"/>
      <point x="716" y="319" type="line"/>
      <point x="507" y="319" type="line"/>
      <point x="507" y="369" type="line"/>
      <point x="779" y="369" type="line"/>
      <point x="779" y="317" type="line"/>
    </contour>
  </outline>
</glyph>
<glyph name="threeeighths" format="2">
  <advance width="874"/>
  <unicode hex="215C"/>
  <outline>
    <contour>
      <point x="686" y="42" type="qcurve"/>
      <point x="763" y="45"/>
      <point x="763" y="99" type="qcurve" smooth="yes"/>
      <point x="763" y="111" type="line" smooth="yes"/>
      <point x="763" y="168"/>
      <point x="686" y="168" type="qcurve"/>
      <point x="609" y="165"/>
      <point x="609" y="111" type="qcurve" smooth="yes"/>
      <point x="609" y="99" type="line"/>
      <point x="610" y="42"/>
    </contour>
    <contour>
      <point x="686" y="214" type="qcurve" smooth="yes"/>
      <point x="755" y="214"/>
      <point x="755" y="266" type="qcurve" smooth="yes"/>
      <point x="755" y="275" type="line" smooth="yes"/>
      <point x="755" y="327"/>
      <point x="683" y="327" type="qcurve" smooth="yes"/>
      <point x="617" y="327"/>
      <point x="617" y="275" type="qcurve" smooth="yes"/>
      <point x="617" y="266" type="line" smooth="yes"/>
      <point x="617" y="214"/>
    </contour>
    <contour>
      <point x="686" y="-6" type="qcurve" smooth="yes"/>
      <point x="616" y="-6"/>
      <point x="542" y="55"/>
      <point x="542" y="101" type="qcurve" smooth="yes"/>
      <point x="542" y="137"/>
      <point x="586" y="182"/>
      <point x="622" y="191" type="qcurve"/>
      <point x="622" y="195" type="line"/>
      <point x="592" y="205"/>
      <point x="555" y="248"/>
      <point x="555" y="280" type="qcurve" smooth="yes"/>
      <point x="555" y="323"/>
      <point x="623" y="375"/>
      <point x="686" y="375" type="qcurve" smooth="yes"/>
      <point x="749" y="375"/>
      <point x="817" y="323"/>
      <point x="817" y="280" type="qcurve" smooth="yes"/>
      <point x="817" y="248"/>
      <point x="780" y="205"/>
      <point x="750" y="195" type="qcurve"/>
      <point x="750" y="191" type="line"/>
      <point x="787" y="182"/>
      <point x="830" y="137"/>
      <point x="830" y="101" type="qcurve" smooth="yes"/>
      <point x="830" y="55"/>
      <point x="756" y="-6"/>
    </contour>
    <contour>
      <point x="160" y="323" type="qcurve" smooth="yes"/>
      <point x="105" y="323"/>
      <point x="42" y="362"/>
      <point x="24" y="389" type="qcurve"/>
      <point x="71" y="423" type="line"/>
      <point x="85" y="401"/>
      <point x="125" y="373"/>
      <point x="160" y="373" type="qcurve"/>
      <point x="237" y="376"/>
      <point x="237" y="434" type="qcurve" smooth="yes"/>
      <point x="237" y="440" type="line" smooth="yes"/>
      <point x="237" y="495"/>
      <point x="160" y="495" type="qcurve" smooth="yes"/>
      <point x="115" y="495" type="line"/>
      <point x="115" y="546" type="line"/>
      <point x="155" y="546" type="line" smooth="yes"/>
      <point x="230" y="546"/>
      <point x="230" y="602" type="qcurve"/>
      <point x="225" y="654"/>
      <point x="165" y="654" type="qcurve" smooth="yes"/>
      <point x="112" y="654"/>
      <point x="82" y="609" type="qcurve"/>
      <point x="39" y="643" type="line"/>
      <point x="79" y="704"/>
      <point x="167" y="704" type="qcurve" smooth="yes"/>
      <point x="224" y="704"/>
      <point x="297" y="654"/>
      <point x="297" y="609" type="qcurve" smooth="yes"/>
      <point x="297" y="573"/>
      <point x="252" y="531"/>
      <point x="219" y="524" type="qcurve"/>
      <point x="219" y="521" type="line"/>
      <point x="254" y="515"/>
      <point x="303" y="471"/>
      <point x="303" y="431" type="qcurve" smooth="yes"/>
      <point x="303" y="382"/>
      <point x="226" y="323"/>
    </contour>
    <contour>
      <point x="148" y="0" type="line"/>
      <point x="634" y="698" type="line"/>
      <point x="701" y="698" type="line"/>
      <point x="215" y="0" type="line"/>
    </contour>
  </outline>
</glyph>
<glyph name="seveneighths" format="2">
  <advance width="843"/>
  <unicode hex="215E"/>
  <outline>
    <contour>
      <point x="655" y="42" type="qcurve"/>
      <point x="732" y="45"/>
      <point x="732" y="99" type="qcurve" smooth="yes"/>
      <point x="732" y="111" type="line" smooth="yes"/>
      <point x="732" y="168"/>
      <point x="655" y="168" type="qcurve"/>
      <point x="578" y="165"/>
      <point x="578" y="111" type="qcurve" smooth="yes"/>
      <point x="578" y="99" type="line"/>
      <point x="579" y="42"/>
    </contour>
    <contour>
      <point x="655" y="214" type="qcurve" smooth="yes"/>
      <point x="724" y="214"/>
      <point x="724" y="266" type="qcurve" smooth="yes"/>
      <point x="724" y="275" type="line" smooth="yes"/>
      <point x="724" y="327"/>
      <point x="652" y="327" type="qcurve" smooth="yes"/>
      <point x="586" y="327"/>
      <point x="586" y="275" type="qcurve" smooth="yes"/>
      <point x="586" y="266" type="line" smooth="yes"/>
      <point x="586" y="214"/>
    </contour>
    <contour>
      <point x="655" y="-6" type="qcurve" smooth="yes"/>
      <point x="585" y="-6"/>
      <point x="511" y="55"/>
      <point x="511" y="101" type="qcurve" smooth="yes"/>
      <point x="511" y="137"/>
      <point x="555" y="182"/>
      <point x="591" y="191" type="qcurve"/>
      <point x="591" y="195" type="line"/>
      <point x="561" y="205"/>
      <point x="524" y="248"/>
      <point x="524" y="280" type="qcurve" smooth="yes"/>
      <point x="524" y="323"/>
      <point x="592" y="375"/>
      <point x="655" y="375" type="qcurve" smooth="yes"/>
      <point x="718" y="375"/>
      <point x="786" y="323"/>
      <point x="786" y="280" type="qcurve" smooth="yes"/>
      <point x="786" y="248"/>
      <point x="749" y="205"/>
      <point x="719" y="195" type="qcurve"/>
      <point x="719" y="191" type="line"/>
      <point x="756" y="182"/>
      <point x="799" y="137"/>
      <point x="799" y="101" type="qcurve" smooth="yes"/>
      <point x="799" y="55"/>
      <point x="725" y="-6"/>
    </contour>
    <contour>
      <point x="117" y="0" type="line"/>
      <point x="603" y="698" type="line"/>
      <point x="670" y="698" type="line"/>
      <point x="184" y="0" type="line"/>
    </contour>
    <contour>
      <point x="303" y="646" type="line"/>
      <point x="159" y="329" type="line"/>
      <point x="92" y="329" type="line"/>
      <point x="240" y="648" type="line"/>
      <point x="31" y="648" type="line"/>
      <point x="31" y="698" type="line"/>
      <point x="303" y="698" type="line"/>
    </contour>
  </outline>
</glyph>
<glyph name="ff" format="2">
  <advance width="596"/>
  <unicode hex="FB00"/>
  <outline>
    <contour>
      <point x="113" y="0" type="line"/>
      <point x="113" y="446" type="line"/>
      <point x="29" y="446" type="line"/>
      <point x="29" y="516" type="line"/>
      <point x="113" y="516" type="line"/>
      <point x="113" y="620" type="line" smooth="yes"/>
      <point x="113" y="674"/>
      <point x="169" y="740"/>
      <point x="226" y="740" type="qcurve" smooth="yes"/>
      <point x="304" y="740" type="line"/>
      <point x="304" y="670" type="line"/>
      <point x="193" y="670" type="line"/>
      <point x="193" y="516" type="line"/>
      <point x="385" y="516" type="line"/>
      <point x="385" y="620" type="line" smooth="yes"/>
      <point x="385" y="674"/>
      <point x="441" y="740"/>
      <point x="498" y="740" type="qcurve" smooth="yes"/>
      <point x="576" y="740" type="line"/>
      <point x="576" y="670" type="line"/>
      <point x="465" y="670" type="line"/>
      <point x="465" y="516" type="line"/>
      <point x="576" y="516" type="line"/>
      <point x="576" y="446" type="line"/>
      <point x="465" y="446" type="line"/>
      <point x="465" y="0" type="line"/>
      <point x="385" y="0" type="line"/>
      <point x="385" y="446" type="line"/>
      <point x="193" y="446" type="line"/>
      <point x="193" y="0" type="line"/>
    </contour>
  </outline>
</glyph>
<glyph name="five.subs" format="2">
  <advance width="348"/>
  <outline>
    <contour>
      <point x="168" y="464" type="qcurve" smooth="yes"/>
      <point x="78" y="464"/>
      <point x="36" y="530" type="qcurve"/>
      <point x="81" y="564" type="line"/>
      <point x="95" y="542"/>
      <point x="134" y="514"/>
      <point x="169" y="514" type="qcurve" smooth="yes"/>
      <point x="245" y="514"/>
      <point x="245" y="589" type="qcurve" smooth="yes"/>
      <point x="245" y="655"/>
      <point x="169" y="655" type="qcurve" smooth="yes"/>
      <point x="143" y="655"/>
      <point x="112" y="638"/>
      <point x="101" y="626" type="qcurve"/>
      <point x="49" y="633" type="line"/>
      <point x="63" y="839" type="line"/>
      <point x="291" y="839" type="line"/>
      <point x="291" y="789" type="line"/>
      <point x="112" y="789" type="line"/>
      <point x="101" y="656" type="line"/>
      <point x="105" y="656" type="line"/>
      <point x="119" y="678"/>
      <point x="155" y="705"/>
      <point x="189" y="705" type="qcurve" smooth="yes"/>
      <point x="241" y="705"/>
      <point x="311" y="644"/>
      <point x="311" y="590" type="qcurve" smooth="yes"/>
      <point x="311" y="534"/>
      <point x="236" y="464"/>
    </contour>
  </outline>
</glyph>
<glyph name="one.subs" format="2">
  <advance width="329"/>
  <outline>
    <contour>
      <point x="227" y="470" type="line"/>
      <point x="164" y="470" type="line"/>
      <point x="164" y="785" type="line"/>
      <point x="84" y="743" type="line"/>
      <point x="84" y="800" type="line"/>
      <point x="159" y="839" type="line"/>
      <point x="227" y="839" type="line"/>
    </contour>
  </outline>
</glyph>
<glyph name="seven.subs" format="2">
  <advance width="335"/>
  <outline>
    <contour>
      <point x="159" y="470" type="line"/>
      <point x="92" y="470" type="line"/>
      <point x="240" y="789" type="line"/>
      <point x="31" y="789" type="line"/>
      <point x="31" y="839" type="line"/>
      <point x="303" y="839" type="line"/>
      <point x="303" y="787" type="line"/>
    </contour>
  </outline>
</glyph>
<glyph name="three.sups" format="2">
  <advance width="346"/>
  <outline>
    <contour>
      <point x="160" y="-394" type="qcurve" smooth="yes"/>
      <point x="105" y="-394"/>
      <point x="42" y="-355"/>
      <point x="24" y="-328" type="qcurve"/>
      <point x="71" y="-294" type="line"/>
      <point x="85" y="-316"/>
      <point x="125" y="-344"/>
      <point x="160" y="-344" type="qcurve"/>
      <point x="237" y="-341"/>
      <point x="237" y="-283" type="qcurve" smooth="yes"/>
      <point x="237" y="-277" type="line" smooth="yes"/>
      <point x="237" y="-222"/>
      <point x="160" y="-222" type="qcurve" smooth="yes"/>
      <point x="115" y="-222" type="line"/>
      <point x="115" y="-171" type="line"/>
      <point x="155" y="-171" type="line" smooth="yes"/>
      <point x="230" y="-171"/>
      <point x="230" y="-115" type="qcurve"/>
      <point x="225" y="-63"/>
      <point x="165" y="-63" type="qcurve" smooth="yes"/>
      <point x="112" y="-63"/>
      <point x="82" y="-108" type="qcurve"/>
      <point x="39" y="-74" type="line"/>
      <point x="79" y="-13"/>
      <point x="167" y="-13" type="qcurve" smooth="yes"/>
      <point x="224" y="-13"/>
      <point x="297" y="-63"/>
      <point x="297" y="-108" type="qcurve" smooth="yes"/>
      <point x="297" y="-144"/>
      <point x="252" y="-186"/>
      <point x="219" y="-193" type="qcurve"/>
      <point x="219" y="-196" type="line"/>
      <point x="254" y="-202"/>
      <point x="303" y="-246"/>
      <point x="303" y="-286" type="qcurve" smooth="yes"/>
      <point x="303" y="-335"/>
      <point x="226" y="-394"/>
    </contour>
  </outline>
</glyph>
<glyph name="two.subs" format="2">
  <advance width="346"/>
  <outline>
    <contour>
      <point x="39" y="470" type="line"/>
      <point x="39" y="527" type="line"/>
      <point x="169" y="632" type="line" smooth="yes"/>
      <point x="198" y="656"/>
      <point x="231" y="703"/>
      <point x="231" y="736" type="qcurve" smooth="yes"/>
      <point x="231" y="793"/>
      <point x="166" y="793" type="qcurve" smooth="yes"/>
      <point x="131" y="793"/>
      <point x="96" y="760"/>
      <point x="88" y="735" type="qcurve"/>
      <point x="34" y="755" type="line"/>
      <point x="46" y="792"/>
      <point x="110" y="845"/>
      <point x="170" y="845" type="qcurve" smooth="yes"/>
      <point x="232" y="845"/>
      <point x="298" y="784"/>
      <point x="298" y="736" type="qcurve" smooth="yes"/>
      <point x="298" y="692"/>
      <point x="246" y="627"/>
      <point x="203" y="595" type="qcurve" smooth="yes"/>
      <point x="106" y="520" type="line"/>
      <point x="311" y="520" type="line"/>
      <point x="311" y="470" type="line"/>
    </contour>
  </outline>
</glyph>
<glyph name="zero.sups" format="2">
  <advance width="378"/>
  <outline>
    <contour>
      <point x="189" y="-343" type="qcurve" smooth="yes"/>
      <point x="267" y="-343"/>
      <point x="267" y="-236" type="qcurve" smooth="yes"/>
      <point x="267" y="-171" type="line" smooth="yes"/>
      <point x="267" y="-64"/>
      <point x="189" y="-64" type="qcurve" smooth="yes"/>
      <point x="111" y="-64"/>
      <point x="111" y="-171" type="qcurve" smooth="yes"/>
      <point x="111" y="-236" type="line" smooth="yes"/>
      <point x="111" y="-343"/>
    </contour>
    <contour>
      <point x="189" y="-394" type="qcurve" smooth="yes"/>
      <point x="44" y="-394"/>
      <point x="44" y="-204" type="qcurve" smooth="yes"/>
      <point x="44" y="-13"/>
      <point x="189" y="-13" type="qcurve" smooth="yes"/>
      <point x="334" y="-13"/>
      <point x="334" y="-203" type="qcurve" smooth="yes"/>
      <point x="334" y="-394"/>
    </contour>
  </outline>
</glyph>
